<?xml version="1.0" encoding="UTF-8"?>
<svg id="Layer_1" xmlns="http://www.w3.org/2000/svg" version="1.1" viewBox="0 0 800 800">
  <!-- Generator: Adobe Illustrator 30.2.1, SVG Export Plug-In . SVG Version: 2.1.1 Build 1)  -->
  <defs>
    <style>
      .st0 {
        fill: #1d1b29;
        fill-rule: evenodd;
        stroke: #000;
        stroke-miterlimit: 133.33;
        stroke-width: 0px;
      }
    </style>
  </defs>
  <g id="SVGRepo_iconCarrier">
    <path class="st0" d="M236.9,95.96c18.75-18.75,44.19-29.29,70.71-29.29h184.77c26.52,0,51.96,10.54,70.71,29.29l140.95,140.95c18.75,18.75,29.29,44.19,29.29,70.71v184.77c0,26.52-10.54,51.96-29.29,70.71l-140.95,140.95c-18.75,18.75-44.19,29.29-70.71,29.29h-184.77c-26.52,0-51.96-10.54-70.71-29.29l-140.95-140.95c-18.75-18.75-29.29-44.19-29.29-70.71v-184.77c0-26.52,10.54-51.96,29.29-70.71L236.9,95.96ZM433.33,266.67c0-18.41-14.92-33.33-33.33-33.33s-33.33,14.92-33.33,33.33v166.67c0,18.41,14.92,33.33,33.33,33.33s33.33-14.92,33.33-33.33v-166.67ZM433.33,532.96c0-18.41-14.92-33.33-33.33-33.33s-33.33,14.92-33.33,33.33v.37c0,18.41,14.92,33.33,33.33,33.33s33.33-14.92,33.33-33.33v-.37Z"/>
  </g>
</svg>