<svg width="85" height="85" viewBox="0 0 85 85" fill="none" xmlns="http://www.w3.org/2000/svg">
<path d="M24.4284 79.4082C25.8507 79.4082 26.8479 78.6979 28.519 77.1314L41.3965 65.3923L65.409 65.4272C76.0113 65.4637 81.7032 59.5577 81.7032 49.1346V21.8845C81.7032 11.4614 76.0113 5.5918 65.4106 5.5918H19.5895C9.02521 5.5918 3.29681 11.4249 3.29681 21.8845V49.1346C3.29681 59.5926 9.02369 65.4272 19.5895 65.3923H21.2622V75.7441C21.2622 77.9496 22.4355 79.4082 24.4284 79.4082ZM42.749 41.6288C40.8987 41.6288 39.8316 40.5253 39.7603 38.6401L39.2989 21.0664C39.2275 19.1083 40.6862 17.7225 42.7141 17.7225C44.7055 17.7225 46.2704 19.1447 46.2006 21.1013L45.6663 38.6401C45.5949 40.5617 44.5643 41.6288 42.749 41.6288ZM42.749 54.7203C40.7211 54.7203 38.7646 53.084 38.7646 50.8771C38.7646 48.6701 40.6862 47.0369 42.749 47.0369C44.8482 47.0369 46.7333 48.6367 46.7333 50.8771C46.7333 53.1189 44.8117 54.7203 42.749 54.7203Z" fill="black"/>
</svg>
